<?xml version="1.0" encoding="UTF-8" standalone="no"?>
<!-- Created with Inkscape (http://www.inkscape.org/) -->

<svg
   xmlns:dc="http://purl.org/dc/elements/1.1/"
   xmlns:cc="http://creativecommons.org/ns#"
   xmlns:rdf="http://www.w3.org/1999/02/22-rdf-syntax-ns#"
   xmlns:svg="http://www.w3.org/2000/svg"
   xmlns="http://www.w3.org/2000/svg"
   xmlns:sodipodi="http://sodipodi.sourceforge.net/DTD/sodipodi-0.dtd"
   xmlns:inkscape="http://www.inkscape.org/namespaces/inkscape"
   version="1.1"
   id="svg5274"
   xml:space="preserve"
   width="1002.6667"
   height="706.66669"
   viewBox="0 0 1002.6667 706.66669"
   sodipodi:docname="NMDS_legend.svg"
   inkscape:version="0.92.4 (5da689c313, 2019-01-14)"><metadata
     id="metadata5280"><rdf:RDF><cc:Work
         rdf:about=""><dc:format>image/svg+xml</dc:format><dc:type
           rdf:resource="http://purl.org/dc/dcmitype/StillImage" /><dc:title></dc:title></cc:Work></rdf:RDF></metadata><defs
     id="defs5278"><clipPath
       clipPathUnits="userSpaceOnUse"
       id="clipPath5312"><path
         d="M 0,0 H 752.25 V 530.25 H 0 Z"
         id="path5310"
         inkscape:connector-curvature="0" /></clipPath><clipPath
       clipPathUnits="userSpaceOnUse"
       id="clipPath5324"><path
         d="M 41.06,31.26 H 644.6 v 475.7 H 41.06 Z"
         id="path5322"
         inkscape:connector-curvature="0" /></clipPath></defs><sodipodi:namedview
     pagecolor="#ffffff"
     bordercolor="#666666"
     borderopacity="1"
     objecttolerance="10"
     gridtolerance="10"
     guidetolerance="10"
     inkscape:pageopacity="0"
     inkscape:pageshadow="2"
     inkscape:window-width="3840"
     inkscape:window-height="2004"
     id="namedview5276"
     showgrid="false"
     inkscape:zoom="3.7783516"
     inkscape:cx="501.33334"
     inkscape:cy="353.33334"
     inkscape:window-x="-16"
     inkscape:window-y="-16"
     inkscape:window-maximized="1"
     inkscape:current-layer="g5865" /><g
     id="g5282"
     inkscape:groupmode="layer"
     inkscape:label="Transplant_NMDS_w_legend"
     transform="matrix(1.3333333,0,0,-1.3333333,0,706.66667)"><g
       id="g5284" /><g
       id="g5286" /><g
       id="g5288" /><g
       id="g5290" /><g
       id="g5292" /><g
       id="g5294" /><g
       id="g5296" /><g
       id="g5298" /><g
       id="g5300" /><g
       id="g5302" /><g
       id="g5304" /><g
       id="g5316" /><g
       id="g5458" /><g
       id="g5460" /><g
       id="g5462" /><g
       id="g5464" /><g
       id="g5466" /><g
       id="g5468" /><g
       id="g5470" /><g
       id="g5472" /><g
       id="g5474" /><g
       id="g5476" /><g
       id="g5478" /><g
       id="g5480" /><g
       id="g5482" /><g
       id="g5484" /><g
       id="g5486" /><g
       id="g5506" /><g
       id="g5518" /><g
       id="g5520" /><g
       id="g5522" /><g
       id="g5524" /><g
       id="g5526" /><g
       id="g5528" /><g
       id="g5530" /><g
       id="g5532" /><g
       id="g5534" /><g
       id="g5546" /><g
       id="g5566" /><g
       id="g5568" /><g
       id="g5570" /><g
       id="g5572" /><g
       id="g5574" /><g
       id="g5582" /><g
       id="g5590" /><g
       id="g5592" /><g
       id="g5594" /><g
       id="g5596" /><g
       id="g5598" /><g
       id="g5600" /><g
       id="g5602" /><g
       id="g5608" /><g
       id="g5610" /><g
       id="g5612" /><g
       id="g5620" /><g
       id="g5622" /><g
       id="g5628" /><g
       id="g5634" /><g
       id="g5640" /><g
       id="g5646" /><g
       id="g5652" /><g
       id="g5658" /><g
       id="g5660" /><g
       id="g5662" /><g
       id="g5670" /><g
       id="g5672" /><g
       id="g5674" /><g
       id="g5676" /><g
       id="g5684" /><g
       id="g5686" /><g
       id="g5688" /><g
       id="g5690" /><g
       id="g5698" /><g
       id="g5700" /><g
       id="g5702" /><g
       id="g5704" /><g
       id="g5710" /><g
       id="g5712" /><g
       id="g5714" /><g
       id="g5722" /><g
       id="g5724" /><g
       id="g5730" /><g
       id="g5736" /><g
       id="g5742" /><g
       id="g5748" /><g
       id="g5754" /><g
       id="g5760" /><g
       id="g5762" /><g
       id="g5764" /><g
       id="g5772" /><g
       id="g5774" /><g
       id="g5776" /><g
       id="g5778" /><g
       id="g5786" /><g
       id="g5788" /><g
       id="g5790" /><g
       id="g5792" /><g
       id="g5794" /><g
       id="g5796" /><g
       id="g5804" /><g
       id="g5806" /><g
       id="g5808" /><g
       id="g5810" /><g
       id="g5812" /><g
       id="g5814" /><g
       id="g7748"><rect
         transform="scale(1,-1)"
         y="-381.55984"
         x="290.38614"
         height="102.22426"
         width="79.282906"
         id="rect6720"
         style="fill:#ffffff;fill-opacity:1;stroke:#000000;stroke-width:0.64938879;stroke-opacity:1" /><g
         transform="translate(-380.72159,52.800804)"
         id="g5865"
         style=""><g
           transform="translate(13.894949,1.9849927)"
           id="g6718"><g
             id="g5726"
             transform="translate(0.19849924,28.385396)"><path
               inkscape:connector-curvature="0"
               id="path5728"
               style="fill:#ffffff;fill-opacity:1;fill-rule:nonzero;stroke:none"
               d="m 661.04,215.5 h 17.28 v 17.28 h -17.28 z" /></g><g
             id="g5738"
             transform="translate(0.19849924,28.385396)"><path
               inkscape:connector-curvature="0"
               id="path5740"
               style="fill:none;stroke:#000000;stroke-width:0.70999998;stroke-linecap:round;stroke-linejoin:round;stroke-miterlimit:10;stroke-dasharray:none;stroke-opacity:1"
               d="m 663.99,224.14 c 0,3.13 2.56,5.69 5.69,5.69 3.13,0 5.69,-2.56 5.69,-5.69 0,-3.13 -2.56,-5.69 -5.69,-5.69 -3.13,0 -5.69,2.56 -5.69,5.69" /></g><g
             id="g5744"
             transform="translate(0.19849924,28.385396)"><path
               inkscape:connector-curvature="0"
               id="path5746"
               style="fill:#ffffff;fill-opacity:1;fill-rule:nonzero;stroke:none"
               d="m 661.04,198.22 h 17.28 v 17.28 h -17.28 z" /></g><g
             id="g5756"
             transform="translate(0.19849924,28.385396)"><path
               inkscape:connector-curvature="0"
               id="path5758"
               style="fill:none;stroke:#000000;stroke-width:0.70999998;stroke-linecap:round;stroke-linejoin:round;stroke-miterlimit:10;stroke-dasharray:none;stroke-opacity:1"
               d="m 669.68,215.71 7.66,-13.27 h -15.32 l 7.66,13.27" /></g><g
             id="g5766"
             transform="translate(0.19849924,28.385396)"><text
               id="text5770"
               style="font-variant:normal;font-weight:normal;font-size:9px;font-family:Helvetica;-inkscape-font-specification:Helvetica;writing-mode:lr-tb;fill:#000000;fill-opacity:1;fill-rule:nonzero;stroke:none"
               transform="matrix(1,0,0,-1,683.8,220.91)"><tspan
                 id="tspan5768"
                 y="0"
                 x="0">Bulk</tspan></text>
</g><g
             id="g5780"
             transform="translate(0.19849924,28.385396)"><text
               id="text5784"
               style="font-variant:normal;font-weight:normal;font-size:9px;font-family:Helvetica;-inkscape-font-specification:Helvetica;writing-mode:lr-tb;fill:#000000;fill-opacity:1;fill-rule:nonzero;stroke:none"
               transform="matrix(1,0,0,-1,683.8,203.63)"><tspan
                 id="tspan5782"
                 y="0"
                 x="0">Rhizo</tspan></text>
</g></g><g
           transform="translate(14.093448,1.9849927)"
           id="g6702"><g
             id="g5624"><path
               inkscape:connector-curvature="0"
               id="path5626"
               style="fill:#ffffff;fill-opacity:1;fill-rule:nonzero;stroke:none"
               d="m 661.04,305.99 h 17.28 v 17.28 h -17.28 z" /></g><g
             id="g5630"><path
               inkscape:connector-curvature="0"
               id="path5632"
               style="fill:#000000;fill-opacity:1;fill-rule:nonzero;stroke:#000000;stroke-width:0.70999998;stroke-linecap:round;stroke-linejoin:round;stroke-miterlimit:10;stroke-dasharray:none;stroke-opacity:1"
               d="m 663.99,314.63 c 0,3.13 2.56,5.69 5.69,5.69 3.13,0 5.69,-2.56 5.69,-5.69 0,-3.13 -2.56,-5.69 -5.69,-5.69 -3.13,0 -5.69,2.56 -5.69,5.69" /></g><g
             id="g5636"><path
               inkscape:connector-curvature="0"
               id="path5638"
               style="fill:#ffffff;fill-opacity:1;fill-rule:nonzero;stroke:none"
               d="m 661.04,288.71 h 17.28 v 17.28 h -17.28 z" /></g><g
             id="g5642"><path
               inkscape:connector-curvature="0"
               id="path5644"
               style="fill:#000000;fill-opacity:1;fill-rule:nonzero;stroke:#000000;stroke-width:0.70999998;stroke-linecap:round;stroke-linejoin:round;stroke-miterlimit:10;stroke-dasharray:none;stroke-opacity:1"
               d="m 663.99,297.35 c 0,3.13 2.56,5.69 5.69,5.69 3.13,0 5.69,-2.56 5.69,-5.69 0,-3.13 -2.56,-5.69 -5.69,-5.69 -3.13,0 -5.69,2.56 -5.69,5.69" /></g><g
             id="g5648"><path
               inkscape:connector-curvature="0"
               id="path5650"
               style="fill:#ffffff;fill-opacity:1;fill-rule:nonzero;stroke:none"
               d="m 661.04,271.43 h 17.28 v 17.28 h -17.28 z" /></g><g
             id="g5654"><path
               inkscape:connector-curvature="0"
               id="path5656"
               style="fill:#000000;fill-opacity:1;fill-rule:nonzero;stroke:#000000;stroke-width:0.70999998;stroke-linecap:round;stroke-linejoin:round;stroke-miterlimit:10;stroke-dasharray:none;stroke-opacity:1"
               d="m 663.99,280.07 c 0,3.13 2.56,5.69 5.69,5.69 3.13,0 5.69,-2.56 5.69,-5.69 0,-3.13 -2.56,-5.69 -5.69,-5.69 -3.13,0 -5.69,2.56 -5.69,5.69" /></g><g
             id="g5664"><text
               id="text5668"
               style="font-variant:normal;font-weight:normal;font-size:9px;font-family:Helvetica;-inkscape-font-specification:Helvetica;writing-mode:lr-tb;fill:#000000;fill-opacity:1;fill-rule:nonzero;stroke:none"
               transform="matrix(1,0,0,-1,683.8,311.4)"><tspan
                 id="tspan5666"
                 y="0"
                 x="0">Ambient</tspan></text>
</g><g
             id="g5678"><text
               id="text5682"
               style="font-variant:normal;font-weight:normal;font-size:9px;font-family:Helvetica;-inkscape-font-specification:Helvetica;writing-mode:lr-tb;fill:#000000;fill-opacity:1;fill-rule:nonzero;stroke:none"
               transform="matrix(1,0,0,-1,683.8,294.12)"><tspan
                 id="tspan5680"
                 y="0"
                 x="0">Drought</tspan></text>
</g><g
             id="g5692"><text
               id="text5696"
               style="font-variant:normal;font-weight:normal;font-size:9px;font-family:Helvetica;-inkscape-font-specification:Helvetica;writing-mode:lr-tb;fill:#000000;fill-opacity:1;fill-rule:nonzero;stroke:none"
               transform="matrix(1,0,0,-1,683.8,276.84)"><tspan
                 id="tspan5694"
                 sodipodi:role="line"
                 y="0"
                 x="0 6.0029998 8.5050001 13.509 16.865999">Starting soil</tspan></text>
</g><path
             style="fill:#000000;fill-opacity:1;stroke:#000000;stroke-width:0.26466569;stroke-opacity:1"
             d="m 383.85983,224.53534 c -3.62671,-0.71515 -6.14695,-3.58627 -6.37857,-7.26662 -0.15089,-2.39765 0.54044,-4.33269 2.11826,-5.92905 1.63102,-1.65017 2.8833,-2.20946 5.26584,-2.3518 1.74665,-0.10435 2.21807,-0.0315 3.45273,0.53377 1.97437,0.9039 3.23986,2.09264 4.1006,3.85192 1.52252,3.11193 0.72147,6.95723 -1.93676,9.29711 -1.73763,1.52952 -4.4494,2.29311 -6.6221,1.86467 z"
             id="path5867"
             inkscape:connector-curvature="0"
             transform="matrix(0.75000002,0,0,-0.75000002,380.72159,477.19921)" /><path
             style="fill:#a9a9a9;fill-opacity:0.6627451;stroke:#000000;stroke-width:0.26466569;stroke-opacity:1"
             d="m 383.22643,224.46245 c -5.66906,-1.58184 -7.7104,-8.50127 -3.85503,-13.06719 0.39233,-0.46464 1.44218,-1.20901 2.333,-1.65416 2.95099,-1.47463 6.46522,-1.00431 8.90828,1.19221 3.3899,3.04781 3.44626,8.44801 0.12016,11.5139 -2.08847,1.92507 -5.01438,2.71059 -7.50641,2.01524 z"
             id="path5869"
             inkscape:connector-curvature="0"
             transform="matrix(0.75000002,0,0,-0.75000002,380.72159,477.19921)" /><path
             style="fill:#ffffff;fill-opacity:1;stroke:#000000;stroke-width:0.26466569;stroke-opacity:1"
             d="m 383.61279,247.54508 c -1.71297,-0.39751 -3.80902,-1.81525 -4.77891,-3.2324 -2.13629,-3.1214 -1.89073,-6.91778 0.62871,-9.72 1.64577,-1.83049 2.90811,-2.42987 5.43532,-2.58078 1.90156,-0.11355 2.18311,-0.0599 3.76206,0.71745 1.83215,0.90197 2.95826,2.05595 3.88793,3.98417 0.78758,1.63352 0.80384,4.42089 0.0357,6.12783 -1.55896,3.46447 -5.47128,5.51584 -8.97084,4.70373 z"
             id="path6676"
             inkscape:connector-curvature="0"
             transform="matrix(0.75000002,0,0,-0.75000002,380.72159,477.19921)" /></g></g></g></g></svg>