<?xml version="1.0" encoding="UTF-8" standalone="no"?>
<!-- Created with Inkscape (http://www.inkscape.org/) -->

<svg
   xmlns:dc="http://purl.org/dc/elements/1.1/"
   xmlns:cc="http://creativecommons.org/ns#"
   xmlns:rdf="http://www.w3.org/1999/02/22-rdf-syntax-ns#"
   xmlns:svg="http://www.w3.org/2000/svg"
   xmlns="http://www.w3.org/2000/svg"
   xmlns:sodipodi="http://sodipodi.sourceforge.net/DTD/sodipodi-0.dtd"
   xmlns:inkscape="http://www.inkscape.org/namespaces/inkscape"
   width="210mm"
   height="297mm"
   viewBox="0 0 210 297"
   version="1.1"
   id="svg2567"
   inkscape:version="0.92.4 (5da689c313, 2019-01-14)"
   sodipodi:docname="bar_graph_legend.svg">
  <defs
     id="defs2561">
    <clipPath
       id="clipPath3148"
       clipPathUnits="userSpaceOnUse">
      <path
         inkscape:connector-curvature="0"
         id="path3146"
         d="M 78.92,31.42 H 746.77 V 524.77 H 78.92 Z" />
    </clipPath>
  </defs>
  <sodipodi:namedview
     id="base"
     pagecolor="#ffffff"
     bordercolor="#666666"
     borderopacity="1.0"
     inkscape:pageopacity="0.0"
     inkscape:pageshadow="2"
     inkscape:zoom="1.4"
     inkscape:cx="373.83024"
     inkscape:cy="560"
     inkscape:document-units="mm"
     inkscape:current-layer="layer1"
     showgrid="false"
     inkscape:window-width="3840"
     inkscape:window-height="2004"
     inkscape:window-x="-16"
     inkscape:window-y="-16"
     inkscape:window-maximized="1" />
  <metadata
     id="metadata2564">
    <rdf:RDF>
      <cc:Work
         rdf:about="">
        <dc:format>image/svg+xml</dc:format>
        <dc:type
           rdf:resource="http://purl.org/dc/dcmitype/StillImage" />
        <dc:title></dc:title>
      </cc:Work>
    </rdf:RDF>
  </metadata>
  <g
     inkscape:label="Layer 1"
     inkscape:groupmode="layer"
     id="layer1">
    <g
       id="g3122"
       transform="matrix(0.35277777,0,0,-0.35277777,54.031704,200.78616)" />
    <g
       id="g3124"
       transform="matrix(0.35277777,0,0,-0.35277777,54.031704,200.78616)" />
    <g
       id="g3126"
       transform="matrix(0.35277777,0,0,-0.35277777,54.031704,200.78616)" />
    <g
       id="g3128"
       transform="matrix(0.35277777,0,0,-0.35277777,54.031704,200.78616)" />
    <g
       id="g3130"
       transform="matrix(0.35277777,0,0,-0.35277777,54.031704,200.78616)" />
    <g
       id="g3132"
       transform="matrix(0.35277777,0,0,-0.35277777,54.031704,200.78616)" />
    <g
       id="g3134"
       transform="matrix(0.35277777,0,0,-0.35277777,54.031704,200.78616)" />
    <g
       id="g3140"
       transform="matrix(0.35277777,0,0,-0.35277777,54.031704,200.78616)" />
    <g
       id="g3212"
       transform="matrix(0.35277777,0,0,-0.35277777,54.031704,200.78616)" />
    <g
       id="g3214"
       transform="matrix(0.35277777,0,0,-0.35277777,54.031704,200.78616)" />
    <g
       id="g3216"
       transform="matrix(0.35277777,0,0,-0.35277777,54.031704,200.78616)" />
    <g
       id="g3218"
       transform="matrix(0.35277777,0,0,-0.35277777,54.031704,200.78616)" />
    <g
       id="g3220"
       transform="matrix(0.35277777,0,0,-0.35277777,54.031704,200.78616)" />
    <g
       id="g3222"
       transform="matrix(0.35277777,0,0,-0.35277777,54.031704,200.78616)" />
    <g
       id="g3224"
       transform="matrix(0.35277777,0,0,-0.35277777,54.031704,200.78616)" />
    <g
       id="g3226"
       transform="matrix(0.35277777,0,0,-0.35277777,54.031704,200.78616)" />
    <g
       id="g3228"
       transform="matrix(0.35277777,0,0,-0.35277777,54.031704,200.78616)" />
    <g
       id="g3230"
       transform="matrix(0.35277777,0,0,-0.35277777,54.031704,200.78616)" />
    <g
       id="g3232"
       transform="matrix(0.35277777,0,0,-0.35277777,54.031704,200.78616)" />
    <g
       id="g3234"
       transform="matrix(0.35277777,0,0,-0.35277777,54.031704,200.78616)" />
    <g
       id="g3236"
       transform="matrix(0.35277777,0,0,-0.35277777,54.031704,200.78616)" />
    <g
       id="g3238"
       transform="matrix(0.35277777,0,0,-0.35277777,54.031704,200.78616)" />
    <g
       id="g3240"
       transform="matrix(0.35277777,0,0,-0.35277777,54.031704,200.78616)" />
    <g
       id="g3264"
       transform="matrix(0.35277777,0,0,-0.35277777,54.031704,200.78616)" />
    <g
       id="g3278"
       transform="matrix(0.35277777,0,0,-0.35277777,54.031704,200.78616)" />
    <g
       id="g3280"
       transform="matrix(0.35277777,0,0,-0.35277777,54.031704,200.78616)" />
    <g
       id="g3282"
       transform="matrix(0.35277777,0,0,-0.35277777,54.031704,200.78616)" />
    <g
       id="g3284"
       transform="matrix(0.35277777,0,0,-0.35277777,54.031704,200.78616)" />
    <g
       id="g3286"
       transform="matrix(0.35277777,0,0,-0.35277777,54.031704,200.78616)" />
    <g
       id="g3288"
       transform="matrix(0.35277777,0,0,-0.35277777,54.031704,200.78616)" />
    <g
       id="g3290"
       transform="matrix(0.35277777,0,0,-0.35277777,54.031704,200.78616)" />
    <g
       id="g3292"
       transform="matrix(0.35277777,0,0,-0.35277777,54.031704,200.78616)" />
    <g
       id="g3294"
       transform="matrix(0.35277777,0,0,-0.35277777,54.031704,200.78616)" />
    <g
       id="g3302"
       transform="matrix(0.35277777,0,0,-0.35277777,54.031704,200.78616)" />
    <g
       id="g3314"
       transform="matrix(0.35277777,0,0,-0.35277777,54.031704,200.78616)" />
    <g
       id="g3316"
       transform="matrix(0.35277777,0,0,-0.35277777,54.031704,200.78616)" />
    <g
       id="g3318"
       transform="matrix(0.35277777,0,0,-0.35277777,54.031704,200.78616)" />
    <g
       id="g3320"
       transform="matrix(0.35277777,0,0,-0.35277777,54.031704,200.78616)" />
    <g
       id="g3322"
       transform="matrix(0.35277777,0,0,-0.35277777,54.031704,200.78616)" />
    <g
       id="g3324"
       transform="matrix(0.35277777,0,0,-0.35277777,54.031704,200.78616)" />
    <g
       id="g3326"
       transform="matrix(0.35277777,0,0,-0.35277777,54.031704,200.78616)" />
    <g
       id="g3334"
       transform="matrix(0.35277777,0,0,-0.35277777,54.031704,200.78616)" />
    <g
       id="g3336"
       transform="matrix(0.35277777,0,0,-0.35277777,54.031704,200.78616)" />
    <g
       id="g3338"
       transform="matrix(0.35277777,0,0,-0.35277777,54.031704,200.78616)" />
    <g
       id="g3340"
       transform="matrix(0.35277777,0,0,-0.35277777,54.031704,200.78616)" />
    <g
       id="g3342"
       transform="matrix(0.35277777,0,0,-0.35277777,54.031704,200.78616)" />
    <g
       id="g3344"
       transform="matrix(0.35277777,0,0,-0.35277777,54.031704,200.78616)" />
    <g
       id="g3346"
       transform="matrix(0.35277777,0,0,-0.35277777,54.031704,200.78616)" />
    <g
       id="g3352"
       transform="matrix(0.35277777,0,0,-0.35277777,54.031704,200.78616)" />
    <g
       id="g3354"
       transform="matrix(0.35277777,0,0,-0.35277777,54.031704,200.78616)" />
    <g
       id="g3356"
       transform="matrix(0.35277777,0,0,-0.35277777,54.031704,200.78616)" />
    <g
       id="g3362"
       transform="matrix(0.35277777,0,0,-0.35277777,54.031704,200.78616)" />
    <g
       id="g3368"
       transform="matrix(0.35277777,0,0,-0.35277777,54.031704,200.78616)" />
    <g
       id="g3374"
       transform="matrix(0.35277777,0,0,-0.35277777,54.031704,200.78616)" />
    <g
       id="g3380"
       transform="matrix(0.35277777,0,0,-0.35277777,54.031704,200.78616)" />
    <g
       id="g3386"
       transform="matrix(0.35277777,0,0,-0.35277777,54.031704,200.78616)" />
    <g
       id="g3392"
       transform="matrix(0.35277777,0,0,-0.35277777,54.031704,200.78616)" />
    <g
       id="g3394"
       transform="matrix(0.35277777,0,0,-0.35277777,54.031704,200.78616)" />
    <g
       id="g3396"
       transform="matrix(0.35277777,0,0,-0.35277777,54.031704,200.78616)" />
    <g
       id="g3404"
       transform="matrix(0.35277777,0,0,-0.35277777,54.031704,200.78616)" />
    <g
       id="g3406"
       transform="matrix(0.35277777,0,0,-0.35277777,54.031704,200.78616)" />
    <g
       id="g3408"
       transform="matrix(0.35277777,0,0,-0.35277777,54.031704,200.78616)" />
    <g
       id="g3410"
       transform="matrix(0.35277777,0,0,-0.35277777,54.031704,200.78616)" />
    <g
       id="g3418"
       transform="matrix(0.35277777,0,0,-0.35277777,54.031704,200.78616)" />
    <g
       id="g3420"
       transform="matrix(0.35277777,0,0,-0.35277777,54.031704,200.78616)" />
    <g
       id="g3422"
       transform="matrix(0.35277777,0,0,-0.35277777,54.031704,200.78616)" />
    <g
       id="g3424"
       transform="matrix(0.35277777,0,0,-0.35277777,54.031704,200.78616)" />
    <g
       id="g3816">
      <g
         transform="matrix(0.35277777,0,0,-0.35277777,-199.21234,433.24152)"
         id="g3348">
        <path
           inkscape:connector-curvature="0"
           id="path3350"
           style="fill:#ffffff;fill-opacity:1;fill-rule:nonzero;stroke:#000000;stroke-width:1.07000005;stroke-linecap:round;stroke-linejoin:round;stroke-miterlimit:10;stroke-dasharray:none;stroke-opacity:1"
           d="m 600.86,437.97 h 91.47 v 74.94 h -91.47 z" />
      </g>
      <g
         transform="matrix(0.35277777,0,0,-0.35277777,-199.21234,433.24152)"
         id="g3358">
        <path
           inkscape:connector-curvature="0"
           id="path3360"
           style="fill:#ffffff;fill-opacity:1;fill-rule:nonzero;stroke:none"
           d="m 606.34,482.45 h 17.28 v 19.5 h -17.28 z" />
      </g>
      <g
         transform="matrix(0.35277777,0,0,-0.35277777,-199.21234,433.24152)"
         id="g3364">
        <path
           inkscape:connector-curvature="0"
           id="path3366"
           style="fill:#ffffff;fill-opacity:1;fill-rule:nonzero;stroke:#000000;stroke-width:1.07000005;stroke-linecap:square;stroke-linejoin:miter;stroke-miterlimit:10;stroke-dasharray:none;stroke-opacity:1"
           d="m 607.05,483.15 h 15.86 v 18.08 h -15.86 z" />
      </g>
      <g
         transform="matrix(0.35277777,0,0,-0.35277777,-199.21234,433.24152)"
         id="g3370">
        <path
           inkscape:connector-curvature="0"
           id="path3372"
           style="fill:#ffffff;fill-opacity:1;fill-rule:nonzero;stroke:none"
           d="m 606.34,462.95 h 17.28 v 19.5 h -17.28 z" />
      </g>
      <g
         transform="matrix(0.35277777,0,0,-0.35277777,-199.21234,433.24152)"
         id="g3376">
        <path
           inkscape:connector-curvature="0"
           id="path3378"
           style="fill:#d3d3d3;fill-opacity:1;fill-rule:nonzero;stroke:#000000;stroke-width:1.07000005;stroke-linecap:square;stroke-linejoin:miter;stroke-miterlimit:10;stroke-dasharray:none;stroke-opacity:1"
           d="m 607.05,463.65 h 15.86 v 18.08 h -15.86 z" />
      </g>
      <g
         transform="matrix(0.35277777,0,0,-0.35277777,-199.21234,433.24152)"
         id="g3382">
        <path
           inkscape:connector-curvature="0"
           id="path3384"
           style="fill:#ffffff;fill-opacity:1;fill-rule:nonzero;stroke:none"
           d="m 606.34,443.45 h 17.28 v 19.5 h -17.28 z" />
      </g>
      <g
         transform="matrix(0.35277777,0,0,-0.35277777,-199.21234,433.24152)"
         id="g3388">
        <path
           inkscape:connector-curvature="0"
           id="path3390"
           style="fill:#a9a9a9;fill-opacity:1;fill-rule:nonzero;stroke:#000000;stroke-width:1.07000005;stroke-linecap:square;stroke-linejoin:miter;stroke-miterlimit:10;stroke-dasharray:none;stroke-opacity:1"
           d="m 607.05,444.15 h 15.86 v 18.08 h -15.86 z" />
      </g>
      <g
         transform="matrix(0.35277777,0,0,-0.35277777,-199.21234,433.24152)"
         id="g3398">
        <text
           id="text3402"
           style="font-variant:normal;font-weight:normal;font-size:20px;font-family:Helvetica;-inkscape-font-specification:Helvetica;writing-mode:lr-tb;fill:#000000;fill-opacity:1;fill-rule:nonzero;stroke:none"
           transform="matrix(1,0,0,-1,629.1,485.02)">
          <tspan
             id="tspan3400"
             sodipodi:role="line"
             y="0"
             x="0 13.34 18.9 30.02 36.98 41.419998 45.860001">Sterile</tspan>
        </text>
      </g>
      <g
         transform="matrix(0.35277777,0,0,-0.35277777,-199.21234,433.24152)"
         id="g3412">
        <text
           id="text3416"
           style="font-variant:normal;font-weight:normal;font-size:20px;font-family:Helvetica;-inkscape-font-specification:Helvetica;writing-mode:lr-tb;fill:#000000;fill-opacity:1;fill-rule:nonzero;stroke:none"
           transform="matrix(1,0,0,-1,629.1,465.52)">
          <tspan
             id="tspan3414"
             sodipodi:role="line"
             y="0"
             x="0 13.34 24.459999 28.9">Bulk</tspan>
        </text>
      </g>
      <g
         transform="matrix(0.35277777,0,0,-0.35277777,-199.21234,433.24152)"
         id="g3426">
        <text
           id="text3430"
           style="font-variant:normal;font-weight:normal;font-size:20px;font-family:Helvetica;-inkscape-font-specification:Helvetica;writing-mode:lr-tb;fill:#000000;fill-opacity:1;fill-rule:nonzero;stroke:none"
           transform="matrix(1,0,0,-1,629.1,446.02)">
          <tspan
             id="tspan3428"
             sodipodi:role="line"
             y="0"
             x="0 14.44 25.559999 30 39.700001">Rhizo</tspan>
        </text>
      </g>
    </g>
    <g
       id="g3432"
       transform="matrix(0.35277777,0,0,-0.35277777,54.031704,200.78616)" />
    <g
       id="g3434"
       transform="matrix(0.35277777,0,0,-0.35277777,54.031704,200.78616)" />
    <g
       id="g3436"
       transform="matrix(0.35277777,0,0,-0.35277777,54.031704,200.78616)" />
    <g
       id="g3438"
       transform="matrix(0.35277777,0,0,-0.35277777,54.031704,200.78616)" />
    <g
       id="g3440"
       transform="matrix(0.35277777,0,0,-0.35277777,54.031704,200.78616)" />
    <g
       id="g3442"
       transform="matrix(0.35277777,0,0,-0.35277777,54.031704,200.78616)" />
    <g
       id="g3444"
       transform="matrix(0.35277777,0,0,-0.35277777,54.031704,200.78616)" />
    <g
       id="g3446"
       transform="matrix(0.35277777,0,0,-0.35277777,54.031704,200.78616)" />
    <g
       id="g3448"
       transform="matrix(0.35277777,0,0,-0.35277777,54.031704,200.78616)" />
    <g
       id="g3450"
       transform="matrix(0.35277777,0,0,-0.35277777,54.031704,200.78616)" />
    <g
       id="g3452"
       transform="matrix(0.35277777,0,0,-0.35277777,54.031704,200.78616)" />
    <g
       id="g3454"
       transform="matrix(0.35277777,0,0,-0.35277777,54.031704,200.78616)" />
    <g
       id="g3456"
       transform="matrix(0.35277777,0,0,-0.35277777,54.031704,200.78616)" />
    <g
       id="g6695">
      <rect
         y="113.38923"
         x="100.15305"
         height="26.664999"
         width="22.321865"
         id="rect7731"
         style="fill:none;fill-opacity:1;stroke:#000000;stroke-width:0.116;stroke-miterlimit:4;stroke-dasharray:none;stroke-opacity:1" />
      <circle
         r="1.5942914"
         id="ellipse6558-5"
         cy="116.20698"
         cx="102.93919"
         style="fill:#000000;fill-opacity:1;stroke:#000000;stroke-width:0.2277559px;stroke-linecap:round;stroke-linejoin:round;stroke-miterlimit:10;stroke-dasharray:none;stroke-opacity:1" />
      <path
         id="path6490-1"
         d="m 102.9392,118.66949 1.86147,3.16451 h -3.72295 l 1.86148,-3.16451"
         style="fill:#000000;fill-opacity:1;stroke:#000000;stroke-width:0.1861479px;stroke-linecap:round;stroke-linejoin:round;stroke-miterlimit:10;stroke-dasharray:none;stroke-opacity:1"
         inkscape:connector-curvature="0" />
      <rect
         y="126.86616"
         x="101.44856"
         height="3.0519907"
         width="3.0519907"
         id="rect8219"
         style="fill:#000000;fill-opacity:1;stroke:#000000;stroke-width:0.1342876;stroke-miterlimit:4;stroke-dasharray:none;stroke-opacity:1" />
      <rect
         y="131.27574"
         x="101.46922"
         height="3.0519907"
         width="3.0519907"
         id="rect8219-6"
         style="fill:#40e0d0;fill-opacity:1;stroke:#000000;stroke-width:0.1342876;stroke-miterlimit:4;stroke-dasharray:none;stroke-opacity:1" />
      <rect
         y="135.60031"
         x="101.46923"
         height="3.0519907"
         width="3.0519907"
         id="rect8219-2"
         style="fill:#ff4747;fill-opacity:1;stroke:#000000;stroke-width:0.1342876;stroke-miterlimit:4;stroke-dasharray:none;stroke-opacity:1" />
      <text
         id="text8244"
         y="117.57313"
         x="105.71752"
         style="font-style:normal;font-variant:normal;font-weight:normal;font-stretch:normal;font-size:3.88055563px;line-height:1.25;font-family:Arial;-inkscape-font-specification:'Arial, Normal';font-variant-ligatures:normal;font-variant-caps:normal;font-variant-numeric:normal;font-feature-settings:normal;text-align:start;letter-spacing:0px;word-spacing:0px;writing-mode:lr-tb;text-anchor:start;fill:#000000;fill-opacity:1;stroke:none;stroke-width:0.26458332"
         xml:space="preserve"><tspan
           style="font-style:normal;font-variant:normal;font-weight:normal;font-stretch:normal;font-size:3.88055563px;font-family:Arial;-inkscape-font-specification:'Arial, Normal';font-variant-ligatures:normal;font-variant-caps:normal;font-variant-numeric:normal;font-feature-settings:normal;text-align:start;writing-mode:lr-tb;text-anchor:start;stroke-width:0.26458332"
           y="117.57313"
           x="105.71752"
           id="tspan8242"
           sodipodi:role="line">Bulk</tspan></text>
      <text
         id="text8244-5"
         y="121.80167"
         x="105.69668"
         style="font-style:normal;font-variant:normal;font-weight:normal;font-stretch:normal;font-size:3.88055563px;line-height:1.25;font-family:Arial;-inkscape-font-specification:'Arial, Normal';font-variant-ligatures:normal;font-variant-caps:normal;font-variant-numeric:normal;font-feature-settings:normal;text-align:start;letter-spacing:0px;word-spacing:0px;writing-mode:lr-tb;text-anchor:start;fill:#000000;fill-opacity:1;stroke:none;stroke-width:0.26458332"
         xml:space="preserve"><tspan
           y="121.80167"
           x="105.69668"
           id="tspan8264"
           sodipodi:role="line"
           style="stroke-width:0.26458332">Rhizo</tspan></text>
      <text
         id="text8244-6"
         y="129.7583"
         x="106.16901"
         style="font-style:normal;font-variant:normal;font-weight:normal;font-stretch:normal;font-size:3.88055563px;line-height:1.25;font-family:Arial;-inkscape-font-specification:'Arial, Normal';font-variant-ligatures:normal;font-variant-caps:normal;font-variant-numeric:normal;font-feature-settings:normal;text-align:start;letter-spacing:0px;word-spacing:0px;writing-mode:lr-tb;text-anchor:start;fill:#000000;fill-opacity:1;stroke:none;stroke-width:0.26458332"
         xml:space="preserve"><tspan
           y="129.7583"
           x="106.16901"
           id="tspan8284"
           sodipodi:role="line"
           style="stroke-width:0.26458332">Initial</tspan></text>
      <text
         id="text8244-6-6"
         y="134.16789"
         x="106.00742"
         style="font-style:normal;font-variant:normal;font-weight:normal;font-stretch:normal;font-size:3.88055563px;line-height:1.25;font-family:Arial;-inkscape-font-specification:'Arial, Normal';font-variant-ligatures:normal;font-variant-caps:normal;font-variant-numeric:normal;font-feature-settings:normal;text-align:start;letter-spacing:0px;word-spacing:0px;writing-mode:lr-tb;text-anchor:start;fill:#000000;fill-opacity:1;stroke:none;stroke-width:0.26458332"
         xml:space="preserve"><tspan
           y="134.16789"
           x="106.00742"
           id="tspan8304"
           sodipodi:role="line"
           style="stroke-width:0.26458332">Ambient</tspan></text>
      <text
         id="text8244-6-8"
         y="138.31094"
         x="105.70236"
         style="font-style:normal;font-variant:normal;font-weight:normal;font-stretch:normal;font-size:3.88055563px;line-height:1.25;font-family:Arial;-inkscape-font-specification:'Arial, Normal';font-variant-ligatures:normal;font-variant-caps:normal;font-variant-numeric:normal;font-feature-settings:normal;text-align:start;letter-spacing:0px;word-spacing:0px;writing-mode:lr-tb;text-anchor:start;fill:#000000;fill-opacity:1;stroke:none;stroke-width:0.26458332"
         xml:space="preserve"><tspan
           y="138.31094"
           x="105.70236"
           id="tspan8314"
           sodipodi:role="line"
           style="stroke-width:0.26458332">Drought</tspan></text>
    </g>
    <g
       transform="matrix(0.26458333,0,0,0.26458333,-18.053647,195.31462)"
       id="g20727">
      <path
         id="path19169-1"
         d="m 658.33292,79.357757 5.81046,-6.453736 -5.81046,-5.808375 -6.45608,5.808375 6.45608,6.453736"
         style="fill:#000000;fill-opacity:1;stroke:#000000;stroke-width:0.64499998;stroke-linecap:round;stroke-linejoin:round;stroke-miterlimit:10;stroke-dasharray:none;stroke-opacity:1"
         inkscape:connector-curvature="0" />
      <rect
         y="61.676449"
         x="647.495"
         height="115.29249"
         width="84.335686"
         id="rect7731-4"
         style="fill:none;fill-opacity:1;stroke:#000000;stroke-width:0.46884376;stroke-miterlimit:4;stroke-dasharray:none;stroke-opacity:1" />
      <circle
         r="6.0256686"
         id="ellipse6558-5-2"
         cy="90.310997"
         cx="658.01013"
         style="fill:#000000;fill-opacity:1;stroke:#000000;stroke-width:0.86080974px;stroke-linecap:round;stroke-linejoin:round;stroke-miterlimit:10;stroke-dasharray:none;stroke-opacity:1" />
      <path
         id="path6490-1-9"
         d="m 658.01014,99.618133 7.03547,11.960357 h -14.07099 l 7.03552,-11.960357"
         style="fill:#000000;fill-opacity:1;stroke:#000000;stroke-width:0.70355111px;stroke-linecap:round;stroke-linejoin:round;stroke-miterlimit:10;stroke-dasharray:none;stroke-opacity:1"
         inkscape:connector-curvature="0" />
      <rect
         y="126.59766"
         x="652.37622"
         height="11.535083"
         width="11.535083"
         id="rect8219-28"
         style="fill:#000000;fill-opacity:1;stroke:#000000;stroke-width:0.50754368;stroke-miterlimit:4;stroke-dasharray:none;stroke-opacity:1" />
      <rect
         y="143.26381"
         x="652.45435"
         height="11.535083"
         width="11.535083"
         id="rect8219-6-8"
         style="fill:#40e0d0;fill-opacity:1;stroke:#000000;stroke-width:0.50754368;stroke-miterlimit:4;stroke-dasharray:none;stroke-opacity:1" />
      <rect
         y="159.60864"
         x="652.45435"
         height="11.535083"
         width="11.535083"
         id="rect8219-2-4"
         style="fill:#ff4747;fill-opacity:1;stroke:#000000;stroke-width:0.50754368;stroke-miterlimit:4;stroke-dasharray:none;stroke-opacity:1" />
      <text
         id="text8244-1"
         y="95.474403"
         x="668.21765"
         style="font-style:normal;font-variant:normal;font-weight:normal;font-stretch:normal;font-size:14.66666698px;line-height:1.25;font-family:Arial;-inkscape-font-specification:'Arial, Normal';font-variant-ligatures:normal;font-variant-caps:normal;font-variant-numeric:normal;font-feature-settings:normal;text-align:start;letter-spacing:0px;word-spacing:0px;writing-mode:lr-tb;text-anchor:start;fill:#000000;fill-opacity:1;stroke:none;stroke-width:0.99999994"
         xml:space="preserve"><tspan
           style="font-style:normal;font-variant:normal;font-weight:normal;font-stretch:normal;font-size:14.66666698px;font-family:Arial;-inkscape-font-specification:'Arial, Normal';font-variant-ligatures:normal;font-variant-caps:normal;font-variant-numeric:normal;font-feature-settings:normal;text-align:start;writing-mode:lr-tb;text-anchor:start;stroke-width:0.99999994"
           y="95.474403"
           x="668.21765"
           id="tspan8242-2"
           sodipodi:role="line">Bulk</tspan></text>
      <text
         id="text8244-5-1"
         y="111.45628"
         x="668.13885"
         style="font-style:normal;font-variant:normal;font-weight:normal;font-stretch:normal;font-size:14.66666698px;line-height:1.25;font-family:Arial;-inkscape-font-specification:'Arial, Normal';font-variant-ligatures:normal;font-variant-caps:normal;font-variant-numeric:normal;font-feature-settings:normal;text-align:start;letter-spacing:0px;word-spacing:0px;writing-mode:lr-tb;text-anchor:start;fill:#000000;fill-opacity:1;stroke:none;stroke-width:0.99999994"
         xml:space="preserve"><tspan
           y="111.45628"
           x="668.13885"
           id="tspan8264-0"
           sodipodi:role="line"
           style="stroke-width:0.99999994">Rhizo</tspan></text>
      <text
         id="text8244-6-2"
         y="137.52859"
         x="670.21729"
         style="font-style:normal;font-variant:normal;font-weight:normal;font-stretch:normal;font-size:14.66666698px;line-height:1.25;font-family:Arial;-inkscape-font-specification:'Arial, Normal';font-variant-ligatures:normal;font-variant-caps:normal;font-variant-numeric:normal;font-feature-settings:normal;text-align:start;letter-spacing:0px;word-spacing:0px;writing-mode:lr-tb;text-anchor:start;fill:#000000;fill-opacity:1;stroke:none;stroke-width:0.99999994"
         xml:space="preserve"><tspan
           y="137.52859"
           x="670.21729"
           id="tspan8284-3"
           sodipodi:role="line"
           style="stroke-width:0.99999994">Initial</tspan></text>
      <text
         id="text8244-6-6-0"
         y="154.19478"
         x="669.60657"
         style="font-style:normal;font-variant:normal;font-weight:normal;font-stretch:normal;font-size:14.66666698px;line-height:1.25;font-family:Arial;-inkscape-font-specification:'Arial, Normal';font-variant-ligatures:normal;font-variant-caps:normal;font-variant-numeric:normal;font-feature-settings:normal;text-align:start;letter-spacing:0px;word-spacing:0px;writing-mode:lr-tb;text-anchor:start;fill:#000000;fill-opacity:1;stroke:none;stroke-width:0.99999994"
         xml:space="preserve"><tspan
           y="154.19478"
           x="669.60657"
           id="tspan8304-6"
           sodipodi:role="line"
           style="stroke-width:0.99999994">Ambient</tspan></text>
      <text
         id="text8244-6-8-0"
         y="169.85355"
         x="668.45361"
         style="font-style:normal;font-variant:normal;font-weight:normal;font-stretch:normal;font-size:14.66666698px;line-height:1.25;font-family:Arial;-inkscape-font-specification:'Arial, Normal';font-variant-ligatures:normal;font-variant-caps:normal;font-variant-numeric:normal;font-feature-settings:normal;text-align:start;letter-spacing:0px;word-spacing:0px;writing-mode:lr-tb;text-anchor:start;fill:#000000;fill-opacity:1;stroke:none;stroke-width:0.99999994"
         xml:space="preserve"><tspan
           y="169.85355"
           x="668.45361"
           id="tspan8314-7"
           sodipodi:role="line"
           style="stroke-width:0.99999994">Drought</tspan></text>
      <text
         id="text8244-61"
         y="79.787933"
         x="668.633"
         style="font-style:normal;font-variant:normal;font-weight:normal;font-stretch:normal;font-size:14.66666698px;line-height:1.25;font-family:Arial;-inkscape-font-specification:'Arial, Normal';font-variant-ligatures:normal;font-variant-caps:normal;font-variant-numeric:normal;font-feature-settings:normal;text-align:start;letter-spacing:0px;word-spacing:0px;writing-mode:lr-tb;text-anchor:start;fill:#000000;fill-opacity:1;stroke:none;stroke-width:0.99999994"
         xml:space="preserve"><tspan
           y="79.787933"
           x="668.633"
           id="tspan19945"
           sodipodi:role="line">Sterile</tspan></text>
    </g>
  </g>
</svg>
